<svg xmlns="http://www.w3.org/2000/svg" xml:space="preserve" width="674.506" height="461.095" style="shape-rendering:geometricPrecision;text-rendering:geometricPrecision;image-rendering:optimizeQuality;fill-rule:evenodd;clip-rule:evenodd" viewBox="0 0 41.671 28.486"><defs><style>.fil7{fill:#706f6f}.fil1{fill:#a2daf7}.fil3{fill:#fff}.fil5{fill:#eac100}.fil0{fill:#eaf6fd}</style></defs><g id="Слой_x0020_1"><g id="_387319296"><path id="_387316200" d="M0 0h19.791v11.728H0z" class="fil0" transform="matrix(.63853 .2252 -.25696 .72857 3.014 15.485)"/><path id="_387326952" d="m15.643 19.964-8.127 2.899-4.51-7.356 4.447 7.536z" class="fil1"/><path id="_387324696" d="m12.637 28.486-2.588-6.473.112-.04 2.476 6.514zm-6.565-7.871L0 24.029l6.01-3.515.062.101z" class="fil1"/><path id="_387318720" d="M0 0h19.791v11.728H0z" class="fil0" transform="matrix(.43687 .15408 -.17581 .49848 27.534 0)"/><path id="_387319248" d="m36.175 3.065-5.561 1.983L27.528.015l3.043 5.156z" class="fil1"/><path id="_387327240" d="m34.118 8.896-1.77-4.43.076-.027 1.694 4.457zM29.626 3.51l-4.154 2.336 4.112-2.405.042.07z" class="fil1"/><path id="_387325920" d="M0 0h19.791v11.728H0z" style="fill:#cde4f2" transform="matrix(.63576 -.09942 .11344 .72541 27.758 15.41)"/><path id="_387319368" d="m40.344 13.464-5.493 6.088-7.089-4.12 7.117 4.299z" class="fil3"/><path id="_387325104" d="m41.671 21.95-5.084-4.25.075-.085 5.01 4.334zm-9.042-3.627-3.54 5.594 3.443-5.65.097.056z" class="fil3"/><path id="_387316032" d="M0 0h19.791v11.728H0z" style="fill:#fc0" transform="matrix(.97435 .00031 -.00036 1.11174 11.216 13.698)"/><path id="_387318048" d="m30.499 13.739-9.644-.061-9.639.055 9.639 8.101z" class="fil5"/><path id="_387324672" d="m30.495 26.743-6.608-7.548.131-.109 6.477 7.657zM17.82 19.2l-6.608 7.538 6.475-7.646.133.108z" class="fil3"/><path id="_387320016" d="m30.499 13.85-9.644.062-9.639-.056 9.639-8.101z" class="fil5"/><path id="_387319560" d="M12.288 7.85H29.3v6.867l-8.467 7.133-8.545-7.328v-.351z" style="fill:#ddf0f6;stroke:#1d1d1b;stroke-width:.11675"/><path id="_387320160" d="M13.38 9.021h14.827v.078H13.38z" class="fil7"/><path id="_387324960" d="M13.38 9.879h14.827v.078H13.38z" class="fil7"/><path id="_387326040" d="M13.38 10.815h14.827v.078H13.38z" class="fil7"/><path id="_387327072" d="M13.38 11.908h14.827v.078H13.38z" class="fil7"/><path id="_387319656" d="M13.38 13.625h14.827v.078H13.38z" class="fil7"/><path id="_387316464" d="M15.292 15.419h11.003v.078H15.292z" class="fil7"/><path id="_387326400" d="M16.658 16.863h8.272v.078h-8.272z" class="fil7"/></g></g></svg>