<svg xmlns="http://www.w3.org/2000/svg" xml:space="preserve" width="1683.171" height="1591.997" style="shape-rendering:geometricPrecision;text-rendering:geometricPrecision;image-rendering:optimizeQuality;fill-rule:evenodd;clip-rule:evenodd" viewBox="0 0 221.211 209.229"><defs><style>.fil0{fill:#dff5fa}</style></defs><g id="Слой_x0020_1"><g id="_362544864"><path id="_362550336" d="M5.446 201.389c0-4.041 2.148-8.168 3.586-11.886 3.072-7.937 7.144-15.454 10.47-23.285 4.442-10.461 9.751-20.555 14.194-31.016 6.916-16.29 14.065-32.585 21.666-48.573a1574.6 1574.6 0 0 0 13.091-28.282c1.053-2.332 1.942-4.736 2.722-7.177.242-.756.566-2.197.01-2.884-.712-.876-1.996-.26-2.717.228-1.868 1.264-2.62 3.636-3.788 5.478-2.253 3.559-3.812 7.734-5.536 11.554-1.975 4.376-4.665 8.804-6.029 13.41-.29.979.296 2.041.067 2.931-.594 2.31-2.244 4.492-3.177 6.688-2.59 6.099-5.558 12.037-8.148 18.137-6.282 14.793-13.162 29.346-19.775 43.998-3.24 7.177-6.903 14.182-9.94 21.445-3.374 8.068-7.371 15.772-10.204 24.073C.878 199.33-.876 204.04.51 207.262c.904 2.1 2.87 2.399 4.777 1.46 2.96-1.456 5.858-4.184 8.175-6.501 10.37-10.37 19.583-22.011 27.638-34.276 1.764-2.687 3.799-5.17 5.519-7.885 22.268-35.16 42.917-71.293 65.187-106.455 6.982-11.025 14.122-21.94 21.29-32.857 2.437-3.708 4.913-7.39 7.556-10.944.872-1.172 1.63-2.814 2.79-3.713-.333 1.464-1.205 2.862-1.747 4.263-1.11 2.869-2.17 5.734-3.373 8.566-3.479 8.194-7.292 16.237-10.991 24.339-9.6 21.023-19.935 41.726-29.863 62.61-3.35 7.044-6.905 13.99-10.251 21.028-1.4 2.944-3.224 5.797-4.4 8.837-1.369 3.533-3.328 6.851-4.902 10.299-3.088 6.763-6.32 13.57-8.65 20.643-.846 2.568-2.203 5.732-1.315 8.445.291.889.712 2.198 1.687 2.516.889.289 1.946-.56 2.74-.863 3.14-1.197 5.498-3.218 7.849-5.57 8.482-8.482 15.08-18.432 22.108-28.105 20.686-28.472 37.207-59.565 55.996-89.231 5.554-8.77 10.74-17.774 16.297-26.548 1.496-2.362 2.934-4.759 4.469-7.097.594-.904 1.07-2.161 1.933-2.83-.877 3.932-3.286 7.815-4.856 11.515-3.678 8.662-7.887 17.098-11.566 25.76-10.47 24.66-22.007 48.875-32.343 73.592-3.823 9.14-8.149 18.242-10.995 27.75-1 3.336-3.206 8.349-.722 11.598.81 1.06 2.119.454 3.203.197 3.079-.735 5.1-2.642 7.294-4.835 8.34-8.342 14.94-18.198 21.24-28.144 7.375-11.645 13.987-23.763 20.892-35.684a2288.127 2288.127 0 0 0 29.646-52.73c3.823-7.022 7.72-14.181 11.945-20.97 1.287-2.067 2.395-4.244 3.68-6.309.786-1.262 2.094-2.835 2.475-4.274.23-.868.06-1.96.06-2.854V6.091h-.263c-.287 1.269-1.414 2.465-2.07 3.58-1.654 2.81-3.34 5.6-4.994 8.41-4.857 8.252-9.338 16.722-14.194 24.972-12.1 20.553-23.12 41.74-35.222 62.295-3.941 6.696-7.61 13.574-11.767 20.14-5.762 9.096-11.44 18.03-18.26 26.359-2.36 2.884-5.348 7.16-9.17 8.012-.177-1.376.346-2.635.771-3.96a129.92 129.92 0 0 1 2.553-7.138c2.965-7.663 6.207-15.198 9.417-22.76 6.853-16.137 14.439-31.963 21.291-48.101 3.143-7.401 6.583-14.677 9.726-22.08 1.998-4.705 3.989-9.507 6.262-14.086 2.349-4.729 4.332-9.69 6.368-14.558 1.955-4.676 4.425-9.306 5.704-14.229.57-2.194.804-4.4 1.315-6.57.238-1.01.513-2.588-.554-3.272-1.092-.7-2.285.446-3.06 1.096-2.229 1.872-3.693 3.99-5.29 6.42-6.649 10.124-13.108 20.425-19.248 30.854-4.887 8.3-10.097 16.409-14.983 24.708-5.319 9.035-10.626 18.116-16.236 26.974-2.354 3.716-4.434 7.607-6.758 11.34-7.24 11.634-14.707 23.31-22.877 34.3-2.553 3.435-4.904 7.024-7.418 10.485-2.837 3.904-6.019 7.515-9.068 11.24-2.514 3.07-5.849 7.62-9.96 8.537 1.304-5.846 4.376-11.308 6.697-16.772 4.004-9.432 8.729-18.602 13.254-27.808 12.658-25.755 25.474-51.554 37.274-77.697 4.971-11.011 10.324-21.87 14.627-33.164 1.523-3.998 4.822-9.21 3.85-13.572h-4.732c-.605 0-1.477-.158-2.034.11-1.178.566-2.112 2.48-2.858 3.507-2.144 2.951-4.258 5.91-6.307 8.937-7.207 10.653-13.911 21.626-21.027 32.33-5.299 7.971-10.128 16.228-15.18 24.346-19.47 31.283-37.326 63.672-58.167 94.063-7.062 10.298-14.248 20.75-23.092 29.596-2.257 2.256-4.45 4.606-7 6.512-.937.702-1.653 1.669-2.857 1.942z" class="fil0"/><path id="_362550096" d="M220.72 25.805c-.27 1.217-.958 2.233-1.44 3.367-.95 2.237-2.002 4.426-3.055 6.622-2.68 5.598-5.294 11.319-7.721 17.034-10.071 23.718-21.35 46.928-31.292 70.7-3.742 8.947-8.27 17.94-10.698 27.372-.889 3.448-2.62 7.655-1.117 11.113 1.35 3.107 4.737 1.488 6.906.396 3.596-1.81 6.453-5.21 9.04-8.196 1.261-1.458 2.704-2.813 3.799-4.405 5.842-8.498 12.073-16.753 17.61-25.496 2.693-4.25 5.153-8.648 7.81-12.918 2.328-3.74 4.508-7.565 6.834-11.303 1.112-1.786 2.85-3.864 3.52-5.856.275-.817.067-1.991.067-2.849V85.21h-.263c-.43 1.676-1.98 3.4-2.858 4.894-2.333 3.963-4.765 7.867-7.097 11.828-7.984 13.561-16.429 26.981-25.69 39.728-3.142 4.325-6.637 8.172-10.485 11.848-.828.791-2.094 1.692-3.193 2.05-.41.135-1.214.152-1.28-.432-.097-.854.387-1.975.602-2.794.606-2.312 1.357-4.56 2.11-6.833 2.741-8.28 6.5-16.214 9.903-24.227 8.363-19.698 17.28-39.21 26.084-58.717 2.9-6.427 5.904-12.84 8.625-19.343 1.03-2.46 3.012-5.079 3.508-7.703.569-3.012.034-6.633.034-9.703h-.263z" class="fil0"/></g></g></svg>