<svg xmlns="http://www.w3.org/2000/svg" xml:space="preserve" width="1283.811" height="736.679" style="shape-rendering:geometricPrecision;text-rendering:geometricPrecision;image-rendering:optimizeQuality;fill-rule:evenodd;clip-rule:evenodd" viewBox="0 0 126.387 72.523"><path d="M92.633 32.988h-.099c1.949-4.75 4.018-9.455 6.033-14.177.784-1.836 2.17-4.476 1.394-6.497-.738-1.92-2.9-.27-3.644.689-1.833 2.36-3.35 5.021-4.885 7.58-.632 1.054-1.617 2.111-2.048 3.25l.197-.1c-1.383 1.904-2.442 4.142-3.574 6.203-2.536 4.616-5.08 9.243-7.746 13.782-1.502 2.556-2.995 5.317-4.924 7.58 1.484-3.347 2.382-7.076 3.612-10.533 2.102-5.905 4.358-11.757 6.57-17.622.908-2.407 1.904-4.856 2.419-7.384.182-.894.47-2.161.203-3.051-.174-.578-.717-.708-.99-1.182-.562.227-1.145.124-1.674.478-1.094.733-1.903 2.281-2.625 3.362-1.621 2.427-3.165 4.902-4.702 7.383-4.155 6.707-7.839 13.692-12.025 20.379-1.993 3.183-3.985 6.577-6.54 9.352 1.369-2.569 2.282-5.492 3.432-8.171 2.543-5.925 5.102-11.831 7.496-17.819.774-1.935 1.839-4.119 2.073-6.202.104-.933-.023-2.094-.9-2.657-.824-.53-1.703.044-2.354.557-1.493 1.178-2.586 3.124-3.684 4.66-3.917 5.479-7.675 11.058-11.142 16.834l-2.6 4.332c-.325.543-.928 1.22-.885 1.87-.774.173-1.566 2.183-1.969 2.855-1.564 2.606-3.226 5.377-5.218 7.679 3.735-9.63 8.427-18.887 12.545-28.353.965-2.22 1.944-4.417 2.77-6.694.327-.9.486-2.24-.355-2.912-1.07-.856-2.196.042-2.817.943-1.543 2.24-2.947 4.56-4.346 6.891-4.094 6.824-7.782 13.89-11.776 20.772-1.245 2.145-2.474 4.305-3.803 6.4-.684 1.078-1.615 2.099-2.16 3.248h-.1c1.28-2.403 2.159-5.094 3.28-7.58 2.685-5.957 5.317-11.94 7.957-17.918.83-1.879 1.935-3.934 2.136-6.005.092-.95-.144-2.14-1.362-2.055-1.092.076-1.928 1.322-2.456 2.154a390.498 390.498 0 0 0-4.12 6.596c-3.549 5.846-6.98 11.774-10.682 17.523-1.952 3.031-3.906 6.227-6.27 8.959 1.308-2.242 2.315-4.74 3.424-7.088 1.573-3.331 3.25-6.613 4.824-9.944 1.671-3.539 3.344-7.072 4.974-10.632.88-1.922 2.107-4.11 2.483-6.202.186-1.03-.349-1.885-.25-2.855-.7.315-1.368-.108-2.067.358-1.472.982-2.45 2.826-3.413 4.27a324.053 324.053 0 0 0-5.489 8.466c-4.879 7.833-9.49 15.835-14.435 23.627a66.876 66.876 0 0 1-3.756 5.316c-.716.915-1.712 1.83-2.244 2.855h-.098c1.99-4.204 3.786-8.5 5.783-12.7 1.28-2.69 2.397-5.462 3.637-8.17 1.392-3.041 2.976-6.037 4.184-9.156.385-.994.96-2.897-.708-3.041-.9-.078-1.533.647-1.938 1.367-.84 1.493-1.555 3.057-2.238 4.627-.286.657-.727 1.351-.827 2.067-.321 2.322-1.975 4.848-2.94 6.99-2.134 4.732-4.2 9.502-6.455 14.176C1.44 65.383-.936 69.28.388 72.268c.552.026 1.008.351 1.576.228 1.161-.253 2.144-1.291 2.953-2.099 1.817-1.814 3.432-3.817 4.922-5.906 4.19-5.878 7.732-12.162 11.5-18.312 1.467-2.393 2.913-4.8 4.392-7.186.801-1.293 1.775-2.56 2.42-3.938h.098c-.596 2.067-1.927 4.05-2.825 6.005-2.247 4.895-4.649 9.746-7.044 14.57-.917 1.847-1.812 3.753-2.47 5.71-.31.923-.656 1.901-.27 2.855.498 1.227 1.534 1.146 2.567.685 1.737-.775 2.997-2.592 4.154-4.032 3.487-4.337 6.47-9.132 9.353-13.88 1.298-2.138 2.929-4.3 3.918-6.597h.099c-2.253 5.491-4.924 10.804-7.07 16.342-.587 1.516-2.23 4.628-.674 6.049.635.58 1.754.274 2.428-.094 1.693-.927 2.967-2.866 4.098-4.38 3.241-4.34 5.756-9.288 8.446-13.979.953-1.662 1.866-3.348 2.8-5.02.475-.852 1.12-1.719 1.392-2.659h.098c-.608 2.11-1.812 4.205-2.726 6.202-1.787 3.903-3.556 7.828-5.15 11.814-.674 1.686-2.54 5.242-1.062 6.887.915 1.017 2.293.42 3.228-.236 2.13-1.495 3.634-4.029 5.054-6.159 4.042-6.063 7.511-12.48 11.455-18.606 1.668-2.592 3.403-5.142 5.152-7.68.837-1.214 1.924-2.407 2.557-3.74h.098c-2.654 7.846-6.406 15.432-9.675 23.036-.895 2.082-1.886 4.272-2.354 6.498-.178.846-.376 1.94.011 2.756.461.973 1.571 1.097 2.47.652 1.491-.739 2.643-2.247 3.68-3.507 3.285-3.992 5.971-8.474 8.625-12.896.67-1.115 1.313-2.258 2.022-3.347.428-.656 1.02-1.245 1.325-1.97h-.197l6.244-10.73 3.404-5.513h.098c-3.518 9.121-6.982 18.29-10.074 27.565-.727 2.181-1.567 4.41-1.894 6.695-.121.846-.179 2.118.559 2.713.848.684 2.258.036 2.943-.566 1.813-1.592 3.136-3.7 4.463-5.692 3.84-5.76 7.019-11.975 10.389-18.015 1.026-1.84 2.02-3.706 3.105-5.513.742-1.237 1.673-2.509 2.225-3.84h.098c-.413 1.51-1.214 2.99-1.829 4.43-1.258 2.95-2.552 5.884-3.743 8.86-.419 1.047-.937 3.967-2.205 4.037.656.831.23 1.314.46 2.264.126.515.516.826.426 1.378l2.166-.505 1.87-1.759 1.772-2.855 3.19-5.217 7.582-13.39 3.902-6.3 2.062-3.347h.099c-.888 2.609-2.185 5.117-3.21 7.679-2.3 5.752-4.513 11.536-6.715 17.326-.79 2.079-1.643 4.214-2.086 6.4-.166.823-.323 2.031.26 2.735.69.831 2.072.298 2.792-.198 1.944-1.338 3.427-3.693 4.782-5.59a823.931 823.931 0 0 0 12.906-18.606c1.27-1.884 2.603-3.726 3.872-5.611.517-.768 1.215-1.508 1.575-2.363 2.145.597 2.912-2.067 3.122-3.74.105-.843-.327-1.815-1.252-1.948-.962-.14-1.776.801-2.336 1.455-1.533 1.792-2.9 3.763-4.226 5.71a1562.209 1562.209 0 0 1-11.524 16.736c-1.243 1.775-2.483 3.551-3.74 5.316-.659.924-1.493 1.84-1.998 2.855.04-.935.614-1.981.943-2.855.744-1.973 1.484-3.95 2.267-5.907 2.43-6.08 4.662-12.24 7.355-18.213 1.064-2.361 2.122-4.746 2.99-7.186.419-1.176.999-2.461.66-3.741-.445-1.683-1.87-1.53-2.99-.61-1.723 1.415-2.967 3.965-4.167 5.828-3.818 5.927-7.53 11.897-11.037 18.015a218.146 218.146 0 0 0-3.383 6.104c-.417.786-.994 1.525-1.301 2.363z" style="fill:#dff5fa"/></svg>