<svg xmlns="http://www.w3.org/2000/svg" xml:space="preserve" width="1283.811" height="736.679" style="shape-rendering:geometricPrecision;text-rendering:geometricPrecision;image-rendering:optimizeQuality;fill-rule:evenodd;clip-rule:evenodd" viewBox="0 0 128.773 73.893"><path d="M94.382 33.61h-.1c1.985-4.839 4.093-9.632 6.146-14.444.798-1.87 2.21-4.56 1.42-6.62-.752-1.956-2.954-.275-3.712.702-1.868 2.405-3.414 5.117-4.978 7.724-.644 1.073-1.647 2.15-2.086 3.31l.2-.1c-1.409 1.939-2.488 4.22-3.642 6.319-2.583 4.703-5.175 9.417-7.892 14.043-1.53 2.604-3.05 5.417-5.016 7.723 1.512-3.411 2.427-7.21 3.68-10.732 2.142-6.017 4.44-11.98 6.694-17.955.925-2.452 1.94-4.948 2.464-7.523.186-.911.48-2.202.207-3.11-.177-.588-.73-.72-1.009-1.203-.572.231-1.166.126-1.705.487-1.115.747-1.94 2.324-2.675 3.425-1.651 2.473-3.224 4.995-4.79 7.523-4.234 6.833-7.987 13.95-12.252 20.763-2.03 3.244-4.061 6.702-6.663 9.529 1.394-2.618 2.324-5.595 3.496-8.325 2.59-6.037 5.198-12.055 7.638-18.156.788-1.971 1.873-4.196 2.111-6.319.107-.95-.023-2.133-.917-2.707-.84-.54-1.735.044-2.398.568-1.52 1.2-2.635 3.182-3.753 4.747-3.992 5.583-7.82 11.267-11.353 17.152l-2.648 4.414c-.332.554-.947 1.244-.903 1.906-.789.176-1.595 2.224-2.006 2.908-1.593 2.656-3.286 5.479-5.316 7.824 3.805-9.811 8.586-19.243 12.781-28.888.984-2.261 1.981-4.5 2.823-6.82.333-.918.495-2.282-.362-2.968-1.09-.871-2.237.043-2.87.962-1.572 2.281-3.002 4.645-4.428 7.02-4.171 6.954-7.929 14.153-11.999 21.165-1.268 2.186-2.52 4.386-3.874 6.52-.698 1.099-1.645 2.14-2.202 3.31h-.1c1.304-2.448 2.198-5.19 3.34-7.723 2.737-6.07 5.418-12.166 8.109-18.256.846-1.915 1.971-4.008 2.175-6.119.094-.968-.146-2.18-1.387-2.094-1.112.078-1.964 1.347-2.502 2.195a398.002 398.002 0 0 0-4.198 6.72c-3.616 5.957-7.111 11.997-10.884 17.854-1.99 3.089-3.98 6.345-6.389 9.128 1.333-2.284 2.359-4.83 3.489-7.222 1.603-3.393 3.312-6.737 4.915-10.13 1.703-3.607 3.407-7.207 5.068-10.834.897-1.958 2.147-4.188 2.53-6.319.19-1.049-.355-1.92-.254-2.909-.713.322-1.394-.11-2.106.365-1.5 1-2.496 2.879-3.478 4.35-1.9 2.85-3.78 5.718-5.592 8.626-4.972 7.981-9.67 16.134-14.708 24.073a68.14 68.14 0 0 1-3.827 5.417c-.73.932-1.745 1.864-2.286 2.909h-.1c2.026-4.283 3.857-8.66 5.892-12.94 1.303-2.741 2.442-5.565 3.706-8.325 1.418-3.098 3.031-6.15 4.262-9.329.393-1.012.978-2.951-.72-3.098-.919-.08-1.563.66-1.976 1.393-.856 1.521-1.584 3.115-2.28 4.715-.291.669-.741 1.376-.842 2.106-.327 2.365-2.013 4.939-2.997 7.122-2.173 4.821-4.278 9.68-6.576 14.444-1.31 2.715-3.731 6.684-2.382 9.73.562.026 1.027.357 1.605.231 1.184-.257 2.185-1.315 3.01-2.138 1.851-1.848 3.496-3.889 5.015-6.018 4.27-5.988 7.878-12.39 11.717-18.657 1.494-2.439 2.968-4.89 4.474-7.322.817-1.318 1.809-2.608 2.466-4.012h.1c-.607 2.106-1.963 4.126-2.878 6.118-2.29 4.988-4.737 9.93-7.177 14.846-.935 1.881-1.846 3.823-2.517 5.817-.316.94-.668 1.937-.274 2.91.506 1.25 1.562 1.167 2.615.697 1.77-.79 3.053-2.641 4.232-4.108 3.553-4.42 6.593-9.305 9.53-14.143 1.322-2.178 2.984-4.38 3.992-6.72h.1c-2.295 5.594-5.017 11.007-7.203 16.65-.598 1.544-2.272 4.715-.687 6.163.648.592 1.787.279 2.474-.096 1.725-.944 3.023-2.92 4.175-4.462 3.303-4.423 5.865-9.464 8.606-14.244.97-1.693 1.9-3.41 2.852-5.115.484-.867 1.142-1.75 1.418-2.708h.1c-.618 2.15-1.845 4.284-2.777 6.319-1.82 3.976-3.622 7.975-5.247 12.036-.686 1.718-2.588 5.341-1.082 7.017.932 1.037 2.336.429 3.29-.24 2.169-1.523 3.701-4.105 5.148-6.275 4.118-6.177 7.653-12.716 11.671-18.958 1.7-2.64 3.468-5.238 5.25-7.824.853-1.237 1.96-2.453 2.605-3.811h.1c-2.704 7.994-6.527 15.723-9.858 23.471-.912 2.121-1.921 4.353-2.398 6.62-.182.863-.383 1.977.011 2.809.47.99 1.601 1.117 2.516.664 1.52-.753 2.693-2.29 3.75-3.573 3.348-4.068 6.084-8.634 8.788-13.14.682-1.136 1.337-2.3 2.06-3.41.436-.669 1.039-1.269 1.35-2.006h-.2l6.362-10.934 3.468-5.617h.1c-3.585 9.293-7.115 18.636-10.265 28.086-.74 2.222-1.596 4.492-1.93 6.82-.123.863-.182 2.159.57 2.765.864.697 2.3.037 2.999-.576 1.847-1.623 3.194-3.77 4.547-5.8 3.912-5.868 7.151-12.2 10.585-18.355 1.046-1.875 2.06-3.776 3.163-5.617.756-1.26 1.705-2.556 2.267-3.912h.1c-.42 1.539-1.237 3.046-1.863 4.513-1.282 3.005-2.6 5.995-3.814 9.028-.426 1.066-.954 4.041-2.247 4.112.67.847.236 1.34.47 2.307.128.525.525.842.433 1.405l2.207-.515 1.906-1.792 1.805-2.91 3.25-5.315 7.726-13.642 3.975-6.42 2.101-3.41h.1c-.904 2.658-2.225 5.214-3.27 7.824-2.344 5.86-4.598 11.754-6.841 17.654-.806 2.117-1.675 4.293-2.125 6.52-.17.838-.33 2.07.265 2.787.702.847 2.11.303 2.844-.202 1.98-1.364 3.491-3.763 4.872-5.695a839.708 839.708 0 0 0 13.15-18.958c1.293-1.92 2.652-3.796 3.945-5.717.526-.782 1.238-1.537 1.604-2.407 2.186.608 2.967-2.107 3.181-3.812.107-.858-.333-1.848-1.275-1.984-.98-.141-1.81.816-2.38 1.483-1.562 1.825-2.955 3.833-4.306 5.817a1591.852 1591.852 0 0 1-11.742 17.052c-1.266 1.809-2.53 3.619-3.81 5.417-.672.941-1.521 1.875-2.036 2.909.041-.953.625-2.02.961-2.91.758-2.009 1.512-4.023 2.31-6.018 2.476-6.194 4.75-12.47 7.493-18.556 1.084-2.406 2.163-4.836 3.047-7.322.427-1.198 1.017-2.508.672-3.812-.453-1.715-1.905-1.558-3.047-.621-1.754 1.441-3.022 4.039-4.245 5.937-3.89 6.04-7.671 12.123-11.245 18.356a222.266 222.266 0 0 0-3.446 6.219c-.426.801-1.014 1.554-1.327 2.407z" style="fill:#fff"/></svg>